<svg xmlns="http://www.w3.org/2000/svg" width="193.237" height="34.054" viewBox="34.213 35.005 193.237 34.054"><linearGradient id="a" gradientUnits="userSpaceOnUse" x1="434.098" y1="-10.672" x2="434.098" y2="26.102" gradientTransform="scale(1 -1) rotate(-45 171.839 439.455)"><stop offset="0" stop-color="#2dafe6"/><stop offset="1" stop-color="#fff"/></linearGradient><path fill="url(#a)" d="M64.753 65.544c-5.72 5.722-16.407 4.309-23.87-3.154-7.463-7.463-8.876-18.15-3.156-23.87 5.721-5.721 16.408-4.309 23.871 3.154 7.464 7.463 8.876 18.15 3.155 23.87z"/><linearGradient id="b" gradientUnits="userSpaceOnUse" x1="24.754" y1="-270.422" x2="24.754" y2="-307.198" gradientTransform="scale(1 -1) rotate(45 -246.53 -137.915)"><stop offset="0" stop-color="#2dafe6"/><stop offset="1" stop-color="#003063"/></linearGradient><path fill="url(#b)" d="M64.754 38.52c5.72 5.72 4.308 16.407-3.156 23.87-7.463 7.463-18.149 8.876-23.87 3.154-5.721-5.721-4.309-16.407 3.154-23.871 7.465-7.462 18.152-8.874 23.872-3.153z"/><linearGradient id="c" gradientUnits="userSpaceOnUse" x1="240.365" y1="-237.615" x2="252.938" y2="-237.615" gradientTransform="matrix(1 0 0 -1 -206 -192.954)"><stop offset="0" stop-color="#1280d3"/><stop offset="1" stop-color="#c8e2f8"/></linearGradient><path fill="url(#c)" d="M46.937 37.275c-8.141.158-14.287 5.991-12.14 14.771l12.14-14.771z"/><linearGradient id="d" gradientUnits="userSpaceOnUse" x1="253.303" y1="-233.41" x2="271.563" y2="-234.798" gradientTransform="matrix(1 0 0 -1 -206 -192.954)"><stop offset="0" stop-color="#2dafe6"/><stop offset="1" stop-color="#003063"/></linearGradient><path fill="url(#d)" d="M51.219 35.609c7.819-2.133 14.609 3.202 14.808 12.177L51.219 35.609z"/><linearGradient id="e" gradientUnits="userSpaceOnUse" x1="268.315" y1="-254.908" x2="275.162" y2="-243.912" gradientTransform="matrix(1 0 0 -1 -206 -192.954)"><stop offset="0" stop-color="#2dafe6"/><stop offset="1" stop-color="#fff"/></linearGradient><path fill="url(#e)" d="M55.559 66.778c7.958-.163 14.344-5.878 12.113-14.794L55.559 66.778z"/><linearGradient id="f" gradientUnits="userSpaceOnUse" x1="244.143" y1="-245.889" x2="252.672" y2="-262.601" gradientTransform="matrix(1 0 0 -1 -206 -192.954)"><stop offset="0" stop-color="#2dafe6"/><stop offset="1" stop-color="#003063"/></linearGradient><path fill="url(#f)" d="M51.25 68.468c-9.36 2.326-14.816-4.961-14.816-12.186L51.25 68.468z"/><linearGradient id="g" gradientUnits="userSpaceOnUse" x1="266.249" y1="-261.24" x2="247.917" y2="-228.201" gradientTransform="matrix(1 0 0 -1 -206 -192.954)"><stop offset="0" stop-color="#269ad0"/><stop offset="1" stop-color="#053169"/></linearGradient><path fill="url(#g)" d="M51.219 35.594c-6.119 1.46-14.038 7.271-16.422 16.439 1.228 5.864 7.739 14.196 16.453 16.446 7.358-1.642 14.325-8.578 16.438-16.446-1.051-5.273-7.525-14.385-16.469-16.439z"/><path fill="#FFF" d="M65.003 49.648a4.771 4.771 0 0 0-.915-2.834c-2.776-3.814-8.557-8.252-15.196-8.509a4.29 4.29 0 0 0-2.751.859c-4.6 3.482-8.412 9.169-8.591 15.251-.031 1.045.345 2.002.895 2.803 2.805 4.095 9.097 8.22 15.216 8.541 1.058.056 2.037-.342 2.833-.916h.001c4.317-2.801 8.463-9.739 8.508-15.195z"/><g><g fill="#575756"><path d="M44.643 56.3c-.934 0-1.546-.274-2.328-.734v-1.057c.688.535 1.332.919 2.22.919 1.364 0 2.39-.966 2.39-2.345 0-1.455-1.011-2.298-2.42-2.298-.966 0-1.517.353-2.19.996v-5.27h5.039v.827h-4.152v3.142c.598-.306.981-.444 1.655-.444 1.793 0 3.142 1.148 3.142 2.986 0 1.929-1.457 3.278-3.356 3.278zM58.15 56.162v-3.109c0-.827-.091-1.961-1.178-1.961-1.074 0-1.242.918-1.242 1.792v1.793h.705v1.486h-2.497v-3.478c0-.813-.107-1.609-1.12-1.609-1.01 0-1.287.842-1.287 1.7v1.9h.75v1.486h-3.247v-1.486h.719v-3.417h-.719v-1.485h2.497v1.057c.537-.796 1.027-1.18 2.023-1.18.981 0 1.501.353 2.006 1.18.537-.842 1.088-1.18 2.099-1.18 1.594 0 2.268.981 2.268 2.481v2.543h.689v1.486H58.15v.001z"/></g></g><g><path fill="#2DAFE6" d="M90.723 45.691l-.323-4.717h-6.11V63.13h2.18v.822h-5.182v-.822h2.037V40.974h-6.04l-.393 4.718h-.644v-5.575h15.188v5.575l-.713-.001zM101.983 63.953v-.823h1.93v-7.611c0-2.43-1-4.324-3.681-4.324-1.68 0-3.288 1.145-3.931 2.682-.357.82-.429 1.715-.429 2.607v6.646h1.965v.822h-4.932v-.822h2.037V40.974h-2.037v-.857h2.967v12.829c1.179-1.536 2.43-2.573 4.431-2.573 2.645 0 4.539 1.93 4.539 4.574v8.184h2.001v.822h-4.86zM114.631 64.203c-3.931 0-6.433-3.324-6.433-7.041 0-3.537 2.323-6.79 6.075-6.79 3.932 0 5.968 3.073 5.968 6.754h-11.006c.071 3.324 1.857 6.219 5.503 6.219 2.216 0 4.038-1.036 4.574-3.288h.929v1.071c-1.393 1.967-3.144 3.075-5.61 3.075zm-.321-13.009c-3.002 0-4.682 2.358-5.074 5.11h10.113c-.073-2.786-2.181-5.11-5.039-5.11z"/><path fill="#575756" d="M141.252 46.191l-.715-4.074h-7.219v8.47h5.504v1.966h-5.504v9.397h2.107v2.002h-6.575V61.95h2.037V42.117h-2.037v-2.001h13.758v6.075h-1.356zM143.646 63.953v-1.895h1.857V51.837h-1.857V49.98h4.146v12.079h1.894v1.894h-6.04zm2.573-18.834c-.68 0-1.287-.5-1.287-1.215 0-.644.502-1.251 1.18-1.251.645 0 1.287.5 1.287 1.18-.003.643-.503 1.286-1.18 1.286zM157.4 64.203c-1.607 0-2.68-.43-3.896-1.431l-.356 1.181h-1.144v-4.574h1.5c.286 2 1.466 3.215 3.538 3.215 1.501 0 2.609-.75 2.609-2.321 0-3.788-7.435-1.321-7.435-6.54 0-2.645 2.037-4.038 4.503-4.038 1.465 0 2.358.357 3.396 1.394l.25-1.107h1.071V54.2h-1.321c-.321-1.681-1.286-2.967-3.146-2.967-1.285 0-2.43.821-2.43 2.18 0 3.467 7.504 1.252 7.504 6.684.004 2.675-2.141 4.106-4.643 4.106zM175.66 63.953V55.59c0-2.215-.821-3.93-3.287-3.93-2.682 0-3.859 2.144-3.859 4.573v5.825h1.857v1.895h-6.003v-1.895h1.894V42.046h-1.894v-1.93h4.146V52.16c1.145-1.573 2.502-2.467 4.502-2.467 3.002 0 4.896 2.001 4.896 4.969v7.396h1.895v1.895h-4.147z"/><path fill="#2DAFE6" d="M194.204 64.203c-2.287 0-3.681-.966-5.146-2.609l-.285 2.181h-.645v-6.146h.645c.143 1.857.57 3.215 2.035 4.432.965.82 2.146 1.286 3.432 1.286 3.072 0 5.109-2.431 5.109-5.396 0-5.969-7.219-4.789-10.076-8.863-.715-1.001-1.037-2.108-1.037-3.359 0-3.323 2.181-5.825 5.574-5.825 2.073 0 3.574.93 4.789 2.573l.287-2.358h.678v6.289h-.678c-.145-1.607-.466-3.18-1.681-4.323-.858-.822-2.146-1.358-3.358-1.358-2.859 0-4.646 2.18-4.646 4.932 0 7.29 11.113 4.396 11.113 12.293 0 3.534-2.537 6.251-6.11 6.251zM202.355 63.953v-.823h1.965V51.444h-1.965v-.821h2.931V63.13h2.037v.822h-4.968zm2.502-18.334a.96.96 0 0 1-.965-.965.96.96 0 0 1 .965-.965c.535 0 .965.429.965.965a.96.96 0 0 1-.965.965zM212.488 64.203c-1.68 0-2.107-1.216-2.107-2.681V51.444h-1.895v-.821h1.895v-4.324l.965-.536v4.86h2.752v.821h-2.752v10.078c0 .894.143 1.821 1.252 1.821.57 0 1.035-.25 1.5-.571v.931c-.536.285-.965.5-1.61.5zM221.84 64.203c-3.931 0-6.433-3.324-6.433-7.041 0-3.537 2.323-6.79 6.075-6.79 3.932 0 5.968 3.073 5.968 6.754h-11.007c.072 3.324 1.857 6.219 5.504 6.219 2.216 0 4.037-1.036 4.574-3.288h.929v1.071c-1.393 1.967-3.143 3.075-5.61 3.075zm-.32-13.009c-3.002 0-4.683 2.358-5.074 5.11h10.113c-.075-2.786-2.182-5.11-5.039-5.11z"/></g></svg>