<svg xmlns="http://www.w3.org/2000/svg" width="218.102" height="34.053" viewBox="0 0 218.102 34.053"><linearGradient id="a" gradientUnits="userSpaceOnUse" x1=".857" y1="7.558" x2=".857" y2="-29.217" gradientTransform="rotate(45.001 -23.393 23.15)"><stop offset="0" stop-color="#97bf0d"/><stop offset=".252" stop-color="#b7d257"/><stop offset=".519" stop-color="#d5e59e"/><stop offset=".742" stop-color="#ecf3d3"/><stop offset=".908" stop-color="#fafcf3"/><stop offset="1" stop-color="#fff"/></linearGradient><path fill="url(#a)" d="M30.539 30.54c-5.72 5.721-16.407 4.308-23.87-3.155-7.463-7.463-8.876-18.15-3.156-23.87C9.234-2.206 19.921-.794 27.384 6.669c7.464 7.462 8.876 18.15 3.155 23.871z"/><linearGradient id="b" gradientUnits="userSpaceOnUse" x1="80.097" y1="20.145" x2="80.097" y2="56.921" gradientTransform="rotate(-45.001 23.888 103.379)"><stop offset="0" stop-color="#97bf0d"/><stop offset=".082" stop-color="#87b510"/><stop offset=".396" stop-color="#4d921a"/><stop offset=".664" stop-color="#237822"/><stop offset=".874" stop-color="#0a6926"/><stop offset="1" stop-color="#006328"/></linearGradient><path fill="url(#b)" d="M30.54 3.514c5.72 5.72 4.308 16.407-3.156 23.87-7.463 7.463-18.149 8.876-23.87 3.155S-.795 14.131 6.668 6.668C14.132-.794 24.819-2.207 30.54 3.514z"/><path fill="#92BF49" d="M12.722 2.27C4.582 2.428-1.564 8.261.583 17.042L12.722 2.27z"/><linearGradient id="c" gradientUnits="userSpaceOnUse" x1="13.089" y1="5.452" x2="31.348" y2="6.84"><stop offset="0" stop-color="#97bf0d"/><stop offset=".082" stop-color="#87b510"/><stop offset=".396" stop-color="#4d921a"/><stop offset=".664" stop-color="#237822"/><stop offset=".874" stop-color="#0a6926"/><stop offset="1" stop-color="#006328"/></linearGradient><path fill="url(#c)" d="M17.004.604c7.819-2.133 14.609 3.202 14.808 12.177L17.004.604z"/><linearGradient id="d" gradientUnits="userSpaceOnUse" x1="28.102" y1="26.95" x2="34.948" y2="15.954"><stop offset="0" stop-color="#97bf0d"/><stop offset=".252" stop-color="#b7d257"/><stop offset=".519" stop-color="#d5e59e"/><stop offset=".742" stop-color="#ecf3d3"/><stop offset=".908" stop-color="#fafcf3"/><stop offset="1" stop-color="#fff"/></linearGradient><path fill="url(#d)" d="M21.344 31.773c7.958-.163 14.344-5.878 12.113-14.794L21.344 31.773z"/><linearGradient id="e" gradientUnits="userSpaceOnUse" x1="3.927" y1="17.93" x2="12.457" y2="34.643"><stop offset="0" stop-color="#97bf0d"/><stop offset=".082" stop-color="#87b510"/><stop offset=".396" stop-color="#4d921a"/><stop offset=".664" stop-color="#237822"/><stop offset=".874" stop-color="#0a6926"/><stop offset="1" stop-color="#006328"/></linearGradient><path fill="url(#e)" d="M17.036 33.463C7.676 35.788 2.22 28.502 2.22 21.277l14.816 12.186z"/><linearGradient id="f" gradientUnits="userSpaceOnUse" x1="26.037" y1="33.281" x2="7.704" y2=".24"><stop offset="0" stop-color="#97bf0d"/><stop offset=".218" stop-color="#69a215"/><stop offset=".468" stop-color="#3c861e"/><stop offset=".69" stop-color="#1b7124"/><stop offset=".875" stop-color="#076528"/><stop offset="1" stop-color="#006029"/></linearGradient><path fill="url(#f)" d="M17.004.588C10.886 2.049 2.967 7.86.583 17.026c1.228 5.865 7.739 14.197 16.453 16.447 7.358-1.641 14.325-8.578 16.438-16.447-1.051-5.272-7.526-14.383-16.47-16.438z"/><path fill="#FFF" d="M30.789 14.643a4.771 4.771 0 0 0-.915-2.834C27.098 7.995 21.317 3.557 14.678 3.3a4.29 4.29 0 0 0-2.751.859c-4.6 3.482-8.412 9.169-8.591 15.251-.031 1.046.345 2.002.895 2.804 2.805 4.094 9.097 8.219 15.216 8.54 1.058.056 2.037-.341 2.833-.916h.001c4.317-2.801 8.463-9.739 8.508-15.195z"/><path fill="#58585A" d="M45.918 27.881c-2.078 0-3.439-.613-5.176-1.634v-2.351c1.533 1.191 2.963 2.043 4.938 2.043 3.031 0 5.312-2.146 5.312-5.21 0-3.235-2.247-5.108-5.381-5.108-2.145 0-3.372.782-4.87 2.213V6.12h11.205v1.839h-9.229v6.982c1.328-.681 2.179-.988 3.678-.988 3.984 0 6.981 2.554 6.981 6.641.001 4.291-3.235 7.287-7.458 7.287M75.637 27.575v-6.913c0-1.839-.205-4.36-2.622-4.36-2.385 0-2.759 2.044-2.759 3.985v3.984h1.566v3.304h-5.551v-7.73c0-1.806-.238-3.576-2.487-3.576-2.247 0-2.86 1.873-2.86 3.781v4.222h1.669v3.304h-7.22v-3.304h1.601v-7.594h-1.601v-3.304h5.551v2.349c1.192-1.771 2.282-2.621 4.495-2.621 2.18 0 3.338.783 4.461 2.621 1.192-1.872 2.418-2.621 4.667-2.621 3.541 0 5.041 2.18 5.041 5.518v5.652h1.532v3.304h-5.483zM95.52 6.801h-2.179v8.854h1.736c1.431 0 2.928-.033 4.087-1.021.987-.851 1.464-2.077 1.464-3.371 0-3.135-2.213-4.462-5.108-4.462m.272 10.795H93.34v8.071h2.01v1.907h-6.13v-1.907h1.805V6.801H89.22V4.894h6.436c2.01 0 3.85.238 5.381 1.634 1.328 1.193 2.01 2.861 2.01 4.633-.001 4.324-3.236 6.435-7.255 6.435M114.493 27.575v-2.01c-1.226 1.464-2.384 2.249-4.325 2.249-2.826 0-4.632-1.907-4.632-4.7v-7.05h-1.804V14.26h3.95v7.935c0 2.146.782 3.78 3.167 3.78 2.553 0 3.644-2.077 3.644-4.359v-5.551h-1.736v-1.804h3.916V25.77h1.771v1.805h-3.951zM128.829 15.792c-2.929 0-4.803 2.452-4.803 5.244 0 2.76 2.078 5.007 4.87 5.007 2.929 0 4.734-2.35 4.734-5.143s-1.908-5.108-4.801-5.108m.408 12.021c-2.146 0-3.645-.714-5.074-2.281v2.043h-3.952v-1.804h1.771V6.698h-1.771V4.859h3.952v11.58c1.396-1.635 2.929-2.452 5.074-2.452 4.019 0 6.572 2.963 6.572 6.879 0 3.951-2.486 6.947-6.572 6.947M136.892 27.575V25.77h1.771V6.699h-1.771V4.86h3.951v20.91h1.874v1.805zM146.972 9.626c-.648 0-1.228-.476-1.228-1.157 0-.614.478-1.192 1.125-1.192.613 0 1.226.476 1.226 1.125 0 .612-.477 1.224-1.123 1.224m-2.453 17.949V25.77h1.771v-9.74h-1.771v-1.771h3.951V25.77h1.805v1.805h-5.756zM157.125 27.813c-1.533 0-2.553-.408-3.712-1.362l-.34 1.124h-1.089v-4.358h1.429c.273 1.906 1.397 3.064 3.372 3.064 1.431 0 2.486-.715 2.486-2.213 0-3.61-7.084-1.261-7.084-6.233 0-2.521 1.94-3.848 4.292-3.848 1.396 0 2.247.34 3.235 1.327l.237-1.055h1.021v4.019h-1.259c-.308-1.601-1.228-2.827-2.998-2.827-1.226 0-2.316.783-2.316 2.077 0 3.303 7.151 1.193 7.151 6.369.002 2.554-2.04 3.916-4.425 3.916M173.861 27.575v-7.97c0-2.11-.781-3.746-3.131-3.746-2.556 0-3.679 2.043-3.679 4.36v5.551h1.771v1.805H163.1V25.77h1.805V6.699H163.1V4.86h3.951v11.476c1.091-1.498 2.383-2.35 4.29-2.35 2.861 0 4.666 1.907 4.666 4.735v7.049h1.807v1.805h-3.953zM181.935 9.626c-.648 0-1.228-.476-1.228-1.157 0-.614.479-1.192 1.125-1.192.613 0 1.225.476 1.225 1.125 0 .612-.474 1.224-1.122 1.224m-2.453 17.949V25.77h1.771v-9.74h-1.771v-1.771h3.95V25.77h1.807v1.805h-5.757zM197.633 27.575v-7.97c0-2.11-.784-3.746-3.133-3.746-2.554 0-3.646 2.079-3.646 4.36v5.551h1.738v1.805h-5.687V25.77h1.769v-9.672h-1.769v-1.839h3.948v1.839c1.158-1.396 2.418-2.112 4.257-2.112 2.827 0 4.7 1.907 4.7 4.735v7.049h1.805v1.805h-3.982zM209.588 15.86c-2.931 0-4.771 2.35-4.771 5.142 0 2.623 2.079 4.802 4.736 4.802 2.759 0 4.732-2.281 4.732-4.972s-1.938-4.972-4.697-4.972m6.708.203v10.932c0 4.36-2.587 6.845-6.913 6.845-2.008 0-4.053-.543-5.279-2.246-.647-.886-.92-1.941-1.157-2.998h2.044c.476 2.419 2.146 3.473 4.527 3.473 2.795 0 4.7-1.6 4.7-4.46v-2.418c-1.463 1.465-3.03 2.384-5.143 2.384-3.813 0-6.469-2.962-6.469-6.709 0-3.78 2.621-6.879 6.505-6.879 2.246 0 3.644.749 5.106 2.384v-2.113h3.884v1.805h-1.805z"/></svg>